<svg xmlns="http://www.w3.org/2000/svg" version="1.1" xmlns:xlink="http://www.w3.org/1999/xlink" width="1500" height="571" viewBox="0 0 1500 571"><svg xml:space="preserve" width="1500" height="571" data-version="2" data-id="lg_BrF6qzIoVhJPDgDAva" viewBox="0 0 429 571" x="0" y="0"><rect width="100%" height="100%" fill="transparent"></rect><path fill="#2d4f8f" d="M209.992 6.732 69.32 45.932v9.184c0 9.912-29.736 27.776-56.448 37.52L4.024 95.94v213.864c0 70.952 35.448 137.368 102.48 191.968a425.6 425.6 0 0 0 101.976 61.376l5.992 2.352 5.992-2.352c2.072-.84 51.744-20.552 101.92-61.376 67.088-54.6 102.592-120.96 102.592-191.968V95.884l-8.904-3.136c-26.712-9.8-56.448-27.664-56.448-37.576v-9.24L214.472 5.5z"></path><path stroke="#fff" stroke-width="2" d="m49.2.22-25.12 7v1.64c0 1.77-5.31 4.96-10.08 6.7l-1.58.59v38.19c0 12.67 6.33 24.53 18.3 34.28a76 76 0 0 0 18.21 10.96L50 100l1.07-.42c.37-.15 9.24-3.67 18.2-10.96 11.98-9.75 18.32-21.6 18.32-34.28v-38.2L86 15.58c-4.77-1.75-10.08-4.94-10.08-6.71V7.22L50 0z" paint-order="stroke" transform="matrix(5.2527 0 0 5.3374 -48.16 18.82)"></path><path fill="#fff" d="M129.53 166.66h-14.08v-39.98h13.94q4.57 0 7.52 1.23 2.96 1.24 4.4 3.44 1.45 2.2 1.45 5.12 0 3.71-2.16 5.94-2.16 2.22-5.6 2.53 3.03.3 5.08 1.45 2.05 1.16 3.1 3.15 1.06 2 1.06 4.91 0 3.85-1.73 6.59-1.73 2.73-5.02 4.18-3.28 1.44-7.96 1.44m-5.5-17.52v10.26h5.01q3.27 0 4.67-1.18t1.4-4.02q0-2.2-.75-3.27-.76-1.07-2.19-1.43-1.43-.36-3.49-.36zm0-15.26v9.05h4.76q1.73 0 2.87-.55 1.14-.55 1.71-1.62.56-1.08.56-2.64 0-2.23-1.43-3.23-1.43-1.01-3.93-1.01z"></path><rect width="28.79" height="39.98" x="-14.39" y="-19.99" fill="none" rx="0" ry="0" transform="translate(130.34 147.17)"></rect><path fill="#fff" d="M158.24 166.66h-8.83v-39.98h8.83z"></path><rect width="8.83" height="39.98" x="-4.42" y="-19.99" fill="none" rx="0" ry="0" transform="translate(154.32 147.17)"></rect><path fill="#fff" d="M182.77 167.21q-5.39 0-9.62-2.45-4.24-2.44-6.67-7.09-2.44-4.65-2.44-11.28 0-6.51 2.37-11.08 2.36-4.56 6.54-6.97t9.6-2.41q3.96 0 7.43 1.54 3.46 1.54 5.65 4.54 2.18 3 2.32 7.43h-8.41q-.2-.72-.64-1.61-.44-.9-1.25-1.72-.81-.83-2.05-1.35-1.23-.52-3.02-.52-2.23 0-4 .78-1.78.79-3.03 2.34-1.25 1.55-1.91 3.86-.66 2.31-.66 5.37 0 3.96 1.07 6.71 1.08 2.75 3.29 4.18 2.21 1.43 5.65 1.43 1.27 0 2.61-.21 1.35-.21 2.56-.65 1.21-.44 2.04-1.12v-4.82h-6.91v-7.26h15.16v16.86q-3.36 2.5-7.14 4t-8.54 1.5"></path><rect width="34.41" height="41.28" x="-17.2" y="-20.64" fill="none" rx="0" ry="0" transform="translate(181.75 147.07)"></rect><path fill="#fff" d="M219.84 166.66h-9.27l12.02-39.98h13.39L248 166.66h-9.27l-3.6-12.92 4.84 3.63h-19.72l.5-6.93h17.3l-2.95 3.19-3.63-13.01-2-8.17h-.44l-1.98 8.17z"></path><rect width="37.43" height="39.98" x="-18.71" y="-19.99" fill="none" rx="0" ry="0" transform="translate(229.78 147.17)"></rect><path fill="#fff" d="M265.52 167.21q-4.59 0-8.27-1.44-3.67-1.45-5.73-4.47-2.06-3.03-1.9-7.73h8.53q.05 1.98.82 3.38.77 1.41 2.42 2.14 1.65.72 4.29.72 2.15 0 3.52-.44 1.38-.44 2.02-1.3.65-.87.65-2.13 0-1.41-.88-2.33-.88-.92-2.76-1.72-1.89-.79-4.86-1.81-3.68-1.32-6.45-2.97-2.76-1.65-4.27-4.04-1.51-2.4-1.51-5.89 0-5.44 3.78-8.29 3.78-2.85 10.27-2.85 4.43 0 7.4 1.39 2.97 1.39 4.55 4.14 1.58 2.75 1.85 6.82h-8.36q-.05-1.59-.67-2.69-.62-1.1-1.8-1.68-1.18-.58-2.94-.58-2.67 0-4.07.87-1.41.86-1.41 2.73 0 1.41.65 2.38.65.98 2.24 1.83 1.6.85 4.43 1.9 2.64.96 5.07 1.88 2.44.92 4.36 2.18 1.93 1.25 3.04 3.14 1.11 1.9 1.11 4.84.03 6-4.09 9.01-4.13 3.01-11.03 3.01"></path><rect width="31.09" height="41.17" x="-15.54" y="-20.59" fill="none" rx="0" ry="0" transform="translate(265.6 147.13)"></rect><path fill="#fff" d="M299.01 167.21q-4.59 0-8.26-1.44-3.67-1.45-5.73-4.47-2.07-3.03-1.9-7.73h8.52q.06 1.98.83 3.38.77 1.41 2.42 2.14 1.65.72 4.29.72 2.14 0 3.52-.44 1.37-.44 2.02-1.3.65-.87.65-2.13 0-1.41-.88-2.33-.88-.92-2.77-1.72-1.88-.79-4.85-1.81-3.69-1.32-6.45-2.97-2.76-1.65-4.28-4.04-1.51-2.4-1.51-5.89 0-5.44 3.78-8.29 3.78-2.85 10.27-2.85 4.43 0 7.4 1.39 2.97 1.39 4.55 4.14 1.58 2.75 1.86 6.82h-8.36q-.06-1.59-.68-2.69-.61-1.1-1.8-1.68-1.18-.58-2.94-.58-2.67 0-4.07.87-1.4.86-1.4 2.73 0 1.41.64 2.38.65.98 2.25 1.83 1.59.85 4.42 1.9 2.64.96 5.08 1.88 2.43.92 4.36 2.18 1.92 1.25 3.03 3.14 1.12 1.9 1.12 4.84.03 6-4.1 9.01-4.12 3.01-11.03 3.01"></path><rect width="31.09" height="41.17" x="-15.55" y="-20.59" fill="none" rx="0" ry="0" transform="translate(299.1 147.13)"></rect><path fill="#fff" d="M133.08 202.48h-2.23q-1.76 0-2.65-.92-.9-.92-1.23-2.88l-1.29-1.76 1.93-1.56h4.56q2.26 0 3.74-.66 1.49-.66 2.23-2.08t.74-3.7q0-3.52-1.77-4.73-1.78-1.21-5.05-1.21h-4.62l-2.36-7.2h7.94q7.26 0 11.04 3.05 3.79 3.05 3.79 9.65 0 2.78-.79 5.29-.78 2.52-2.51 4.49-1.74 1.96-4.56 3.09-2.81 1.13-6.91 1.13m-5.47 13.28h-8.72v-39.98h8.72z"></path><rect width="28.96" height="39.98" x="-14.48" y="-19.99" fill="none" rx="0" ry="0" transform="translate(133.87 196.27)"></rect><path fill="#fff" d="M184.01 215.76H173.7l-8.61-15.37h-4.24l-1.84-.41.8-5.5v-.88h5.8q1.93 0 3.09-.66 1.17-.66 1.7-1.86.52-1.2.52-2.82 0-2.01-.72-3.02-.71-1.02-1.88-1.39-1.17-.37-2.6-.37l-4.37-.03-1.93-3.11-.44-4.56h7.87q3.85 0 6.78 1.29t4.58 3.9q1.65 2.62 1.65 6.55 0 3.05-1.16 5.7-1.15 2.66-3.6 4.32-2.45 1.67-6.33 1.83l1.1-.44q1.08 0 1.98.19.91.2 1.68.72.77.52 1.38 1.48zm-22.63 0h-8.72v-39.98h8.72z"></path><rect width="31.35" height="39.98" x="-15.68" y="-19.99" fill="none" rx="0" ry="0" transform="translate(168.84 196.27)"></rect><path fill="#fff" d="M196.25 215.76h-8.83v-39.98h8.83z"></path><rect width="8.83" height="39.98" x="-4.42" y="-19.99" fill="none" rx="0" ry="0" transform="translate(192.34 196.27)"></rect><path fill="#fff" d="M212.2 215.76h-8.56v-39.98h14.52l5.06 22.16 1.41 6.85h.11l1.43-6.85 4.97-22.16h14.58v39.98h-8.55v-20.21l.85-12.93h-.28l-3.71 12.85-5.77 20.29h-7.07l-5.86-20.29-3.71-12.85h-.28l.86 12.93z"></path><rect width="42.08" height="39.98" x="-21.04" y="-19.99" fill="none" rx="0" ry="0" transform="translate(225.18 196.27)"></rect><path fill="#fff" d="M278.31 215.76h-25v-39.98h24.5v7.89h-18.56l2.67-2.04v11.47l-2.67-1.73h16.72v7.86h-16.45l2.4-1.7v12.35l-2.67-2.07h19.06z"></path><rect width="25" height="39.98" x="-12.5" y="-19.99" fill="none" rx="0" ry="0" transform="translate(266.31 196.27)"></rect><path fill="#fff" d="M297.58 216.31q-4.59 0-8.26-1.44-3.67-1.45-5.73-4.47-2.07-3.03-1.9-7.73h8.52q.06 1.98.83 3.38.77 1.41 2.42 2.13 1.65.73 4.29.73 2.14 0 3.52-.44 1.37-.44 2.02-1.3.65-.87.65-2.13 0-1.41-.88-2.33-.88-.92-2.77-1.72-1.88-.79-4.85-1.81-3.69-1.32-6.45-2.97-2.76-1.65-4.28-4.04-1.51-2.4-1.51-5.89 0-5.44 3.78-8.29 3.78-2.85 10.27-2.85 4.43 0 7.4 1.39 2.97 1.39 4.55 4.14 1.58 2.75 1.86 6.82h-8.36q-.06-1.59-.68-2.69-.61-1.1-1.8-1.68-1.18-.58-2.94-.58-2.67 0-4.07.87-1.4.86-1.4 2.73 0 1.41.64 2.38.65.98 2.25 1.83 1.59.85 4.42 1.9 2.64.96 5.08 1.88 2.43.92 4.36 2.17 1.92 1.26 3.03 3.15 1.12 1.9 1.12 4.84.03 6-4.1 9.01-4.12 3.01-11.03 3.01"></path><rect width="31.09" height="41.17" x="-15.55" y="-20.59" fill="none" rx="0" ry="0" transform="translate(297.67 196.22)"></rect><path fill="#fff" d="M177.61 74.17q-1.66 0-2.83-.66-1.17-.66-1.79-1.91-.62-1.26-.62-3.04 0-1.84.66-3.1.66-1.27 1.86-1.92 1.2-.65 2.81-.65 1.56 0 2.62.59 1.07.59 1.62 1.74t.55 2.83q0 .21-.02.49-.01.27-.03.62h-7.02q.11 1.36.66 1.99.55.62 1.54.62.82 0 1.24-.36.43-.36.51-.95h2.98q-.09 1.13-.69 1.97-.59.83-1.62 1.29-1.03.45-2.43.45m-.92-6.76h2.81q-.04-1.05-.51-1.57-.46-.52-1.42-.52-1.13 0-1.65.81-.52.8-.53 2.28.08-.57.39-.78.31-.22.91-.22"></path><rect width="10.12" height="11.28" x="-5.06" y="-5.64" fill="none" rx="0" ry="0" transform="translate(177.93 69.03)"></rect><path fill="#fff" d="M188.16 74.19q-1.41 0-2.43-.41-1.01-.41-1.57-1.24-.56-.84-.62-2.13h3.03q.09.8.51 1.18.43.38 1.15.38.36 0 .69-.08.33-.09.54-.3.21-.22.21-.6 0-.31-.16-.5-.15-.2-.45-.33-.29-.14-.71-.25-.42-.12-.95-.28-.94-.28-1.76-.68-.81-.4-1.31-1.07t-.5-1.76q0-1.63 1.19-2.42 1.2-.79 3.14-.79 1.14 0 2.05.31.91.31 1.5 1.1.6.79.77 2.23l-3.01-.02q-.09-.64-.31-.95-.22-.32-.5-.42-.28-.11-.58-.11-.34 0-.62.11-.27.11-.43.32-.16.21-.16.53 0 .38.24.65t.73.48q.49.2 1.25.41.5.13 1.12.32.63.19 1.2.53.58.34.95.92.38.58.38 1.5 0 1.6-1.23 2.49-1.23.88-3.35.88"></path><rect width="9.2" height="11.28" x="-4.6" y="-5.64" fill="none" rx="0" ry="0" transform="translate(188.64 69.05)"></rect><path fill="#fff" d="M198.08 74.15q-1.35 0-2.1-.68-.75-.69-.76-2.13l-.03-4.88q0-.38.21-.62.22-.24.61-.31l-.82-1.99v-.33l.57-3.23h2.53v10.4q0 .7.17.97.18.27.68.27t.83-.02q.34-.02.64-.07v2.45q-.36.13-1.08.15-.71.02-1.45.02m2.46-8.62h-6.51v-2.42h6.51z"></path><rect width="6.58" height="14.17" x="-3.29" y="-7.08" fill="none" rx="0" ry="0" transform="translate(197.82 67.56)"></rect><path fill="#fff" d="M203.69 74.17q-.72 0-1.23-.52-.51-.53-.51-1.36 0-.82.51-1.34.51-.52 1.23-.52t1.23.52q.51.52.51 1.34 0 .83-.51 1.36-.51.52-1.23.52"></path><rect width="3.48" height="3.74" x="-1.74" y="-1.87" fill="none" rx="0" ry="0" transform="translate(204.19 72.8)"></rect><path fill="#fff" d="M219.81 74.02h-10.14q.66-.83 1.27-1.61.61-.78 1.18-1.52.58-.74 1.11-1.44l1.05-1.36q.95-1.24 1.53-2 .58-.77.85-1.33.27-.57.27-1.18 0-.71-.41-1.23-.4-.53-1.46-.52-.66 0-1.15.31-.49.31-.69.96-.2.64 0 1.64h-2.88q-.26-1.97.29-3.19.56-1.23 1.72-1.8 1.17-.57 2.74-.57 1.58 0 2.64.51t1.59 1.42q.53.9.53 2.09 0 1.15-.37 2.09-.37.93-.92 1.71-.54.77-1.06 1.47-.42.55-.84 1.11l-.84 1.1-.84 1.1q.33-.34.75-.44.42-.11 1.17-.11h2.91z"></path><rect width="10.18" height="14.84" x="-5.09" y="-7.42" fill="none" rx="0" ry="0" transform="translate(215.26 67.1)"></rect><path fill="#fff" d="M226.82 74.24q-1.6 0-2.82-.77-1.21-.78-1.89-2.45-.68-1.68-.68-4.36 0-2.6.68-4.25t1.89-2.43q1.22-.79 2.82-.79 1.61 0 2.81.79 1.21.78 1.88 2.43.68 1.65.68 4.25 0 2.68-.68 4.36-.67 1.67-1.88 2.45-1.2.77-2.81.77m0-2.87q.68 0 1.16-.43.49-.44.75-1.47t.26-2.79q0-1.73-.26-2.74-.26-1.01-.75-1.44-.48-.44-1.16-.44-.68 0-1.17.44-.49.43-.75 1.44t-.26 2.74q0 1.76.26 2.79t.75 1.47q.49.43 1.17.43"></path><rect width="10.76" height="15.05" x="-5.38" y="-7.53" fill="none" rx="0" ry="0" transform="translate(227.31 67.22)"></rect><path fill="#fff" d="M243.25 74.02h-10.14q.66-.83 1.27-1.61.61-.78 1.18-1.52.58-.74 1.11-1.44l1.05-1.36q.95-1.24 1.53-2 .58-.77.85-1.33.27-.57.27-1.18 0-.71-.41-1.23-.4-.53-1.46-.52-.66 0-1.15.31-.49.31-.69.96-.2.64 0 1.64h-2.88q-.26-1.97.29-3.19.56-1.23 1.72-1.8 1.17-.57 2.74-.57 1.58 0 2.64.51t1.59 1.42q.53.9.53 2.09 0 1.15-.37 2.09-.37.93-.92 1.71-.54.77-1.06 1.47-.42.55-.84 1.11l-.84 1.1-.84 1.1q.33-.34.75-.44.42-.11 1.17-.11h2.91z"></path><rect width="10.18" height="14.84" x="-5.09" y="-7.42" fill="none" rx="0" ry="0" transform="translate(238.7 67.1)"></rect><path fill="#fff" d="M253.26 74.02h-2.83v-2.6h-7.2l5.12-11.94h4.94l-.05.04.01 9.36h1.86v2.54h-1.85zm-5.51-6.25-.68 1.52q.2-.23.43-.32.24-.09.63-.09h3.2q-.55 0-.73-.36-.17-.36-.17-.99v-2.82l.05-3.33-1.42 3.43z"></path><rect width="11.88" height="14.54" x="-5.94" y="-7.27" fill="none" rx="0" ry="0" transform="translate(249.67 67.25)"></rect><path fill="#fff" d="M259.525 279.925a4.84 4.84 0 0 0-3.696-2.532 4.833 4.833 0 0 0-4.194 1.584c-.715.8-17.475 19.747-20.39 36.881-5.337-3.553-11.768-5.23-16.845-5.23-5.147 0-11.304 2.37-16.588 6.908-.066-.472-.118-.945-.194-1.413-2.787-17.205-19.721-36.34-20.44-37.146a4.845 4.845 0 0 0-7.89.948c-.541 1.014-13.208 25.055-10.387 42.472 1.547 9.536 5.153 18.069 9.907 23.697-5.124 9.387-7.918 19.842-7.918 29.817 0 .481.072.96.214 1.42l19.143 62.477.499 5.016a21.93 21.93 0 0 0-3.642 12.116c0 8.848 5.237 16.479 12.766 20.001v8.93a4.845 4.845 0 0 0 4.845 4.845h19.362c.113 0 .218-.026.33-.034.111.008.216.034.33.034H234.1a4.845 4.845 0 0 0 4.845-4.845v-8.93c7.53-3.52 12.767-11.153 12.767-20a21.946 21.946 0 0 0-3.643-12.12l.498-5.013 19.144-62.477c.142-.46.213-.939.213-1.42 0-9.973-2.792-20.427-7.917-29.817 4.754-5.63 8.362-14.163 9.905-23.699 2.82-17.417-9.846-41.454-10.387-42.47m-29.497 48.016c2.47 3.735 2.517 8.631.14 14.556-13.782 16.434-17.16 28.74-17.294 36.67-7.328-4.37-17.43-14.034-17.43-34.123 0-16.235 12.342-24.729 18.956-24.729 4.396.002 12.15 2.368 15.628 7.626M209.23 481.027h-9.673v-9.01h9.673zm20.023 0h-9.673v-9.01h9.673zm9.36-15.576a4.837 4.837 0 0 0-4.515-3.125h-19.365c-.113 0-.218.026-.329.034-.111-.008-.216-.034-.33-.034h-19.362a4.83 4.83 0 0 0-4.514 3.123 12.317 12.317 0 0 1-3.407-8.51c0-6.833 5.56-12.393 12.394-12.393h30.444c6.833 0 12.393 5.559 12.393 12.393a12.323 12.323 0 0 1-3.409 8.512m21.733-144.605c-1.468 9.057-5.122 17.038-9.539 20.828a4.845 4.845 0 0 0-.958 6.236c5.271 8.464 8.233 18.128 8.379 27.294l-4.464 14.568c.005-.13.02-.257.02-.388a9.844 9.844 0 1 0-9.842 9.842 9.82 9.82 0 0 0 8.35-4.65l-13.031 42.525a21.888 21.888 0 0 0-9.632-2.243h-30.445c-3.458 0-6.718.822-9.635 2.243l-13.03-42.525a9.822 9.822 0 0 0 8.347 4.65 9.846 9.846 0 0 0 0-19.688 9.843 9.843 0 0 0-9.84 9.846c0 .131.015.257.02.386l-4.464-14.566c.145-9.17 3.107-18.833 8.378-27.294a4.845 4.845 0 0 0-.957-6.238c-4.416-3.788-8.072-11.77-9.54-20.826-1.503-9.284 2.927-21.898 6.198-29.568 4.843 6.425 11.88 17.07 13.391 26.393.478 2.95.7 5.956.656 8.936a4.82 4.82 0 0 0 .536 2.222c-2.164 4.596-3.492 10.019-3.492 16.215 0 39.016 32.097 46.75 32.42 46.824a4.85 4.85 0 0 0 4.988-1.872 4.845 4.845 0 0 0 .254-5.32c-.068-.114-5.798-12.423 14.635-36.497a4.89 4.89 0 0 0 .766-1.24c3.81-8.952 3.172-15.727 1.29-20.499a51.089 51.089 0 0 1 .654-8.772c1.507-9.295 8.546-19.95 13.39-26.386 3.274 7.673 7.7 20.284 6.197 29.564"></path><path fill="#ffe270" stroke="#fff" stroke-width="1.69" d="M87.17 106.043h255.09M89.989 242.316h255.088"></path></svg></svg>